<svg id="Capa_1" enable-background="new 0 0 512 512" height="512" viewBox="0 0 512 512" width="512" xmlns="http://www.w3.org/2000/svg"><g><g><path d="m75.163 198.063c3.932 1.304 8.177-.825 9.48-4.756 9.136-27.53 17.174-52.068 23.89-72.936l.878-2.732c4.83-15.049 7.255-22.602 11.439-26.842 4.227-4.284 11.983-7.022 27.436-12.478l29.841-10.541h13.594c10.252 40.794 36.731 65.315 59.022 82.25 2.644 2.012 6.434 2.009 9.077-.002 22.293-16.955 48.773-41.493 59.018-82.248h15.031l29.784 10.531c15.469 5.457 23.233 8.197 27.461 12.474 4.181 4.228 6.599 11.762 11.416 26.771l.907 2.826c5.488 16.998 17.27 52.872 23.885 72.916 1.04 3.153 3.972 5.152 7.121 5.152.778 0 1.571-.122 2.351-.379 3.934-1.298 6.07-5.539 4.772-9.473-6.607-20.025-18.376-55.857-23.851-72.816l-.902-2.809c-11.083-34.533-12.884-36.358-48.168-48.806l-30.987-10.956c-.804-.284-1.649-.429-2.501-.429h-158.315c-.851 0-1.695.145-2.498.428l-31.05 10.969c-35.257 12.448-37.057 14.275-48.165 48.88l-.875 2.723c-6.702 20.823-14.725 45.318-23.848 72.805-1.303 3.929.826 8.173 4.757 9.478zm228.146-130.285c-9.064 31.541-29.507 52.079-48.03 66.782-18.519-14.686-38.959-35.213-48.026-66.782z"/><path d="m335.606 184.421c4.122-.41 7.132-4.083 6.722-8.205-.409-4.122-4.086-7.123-8.204-6.722l-32.754 3.255c-2.502.249-4.713 1.734-5.889 3.957l-9.4 17.773-28.153-7.552c-1.273-.342-2.613-.342-3.887 0l-28.153 7.552-9.4-17.773c-1.176-2.223-3.387-3.708-5.889-3.957l-32.754-3.255c-4.129-.409-7.796 2.6-8.204 6.722-.41 4.122 2.6 7.795 6.722 8.205l28.747 2.856 5.917 11.189-10.003 2.683c-2.541.682-4.539 2.645-5.266 5.174-13.914 48.46 4.248 84.523 26.533 108.766l-11.351 21.461c-1.937 3.662-.538 8.2 3.123 10.136 1.118.591 2.318.872 3.5.872 2.69 0 5.292-1.452 6.637-3.995l9.257-17.503c6.336 5.643 12.637 10.39 18.309 14.246 1.272.865 2.745 1.297 4.217 1.297s2.944-.433 4.217-1.297c5.673-3.856 11.974-8.603 18.309-14.246l9.257 17.503c1.346 2.544 3.946 3.995 6.637 3.995 1.182 0 2.382-.28 3.5-.872 3.661-1.937 5.06-6.475 3.123-10.136l-11.351-21.461c22.285-24.243 40.447-60.306 26.533-108.766-.727-2.529-2.725-4.492-5.266-5.174l-10.003-2.683 5.917-11.189zm-79.621 17.515 22.903 6.144-22.903 43.305-22.903-43.305zm-26.267 99.115c-18.057-21.244-29.808-49.781-20.628-86.535l9.133-2.45 29.279 55.36zm26.267 23.897c-5.176-3.736-10.359-7.9-15.324-12.505l15.324-28.975 15.324 28.975c-4.965 4.605-10.148 8.769-15.324 12.505zm46.897-110.432c9.179 36.754-2.571 65.291-20.628 86.535l-17.783-33.625 29.279-55.36z"/><path d="m511.638 400.395c-12.309-38.242-26.674-81.333-41.882-126.954-5.778-17.336-11.648-34.943-17.519-52.631-1.306-3.931-5.55-6.061-9.481-4.755-3.931 1.305-6.06 5.55-4.755 9.481 5.874 17.694 11.745 35.307 17.526 52.649 9.544 28.633 18.753 56.259 27.329 82.311l-56.506 21.559-37.743-97.414v-62.319c0-4.142-3.357-7.5-7.5-7.5s-7.5 3.358-7.5 7.5v144.046h-235.214v-144.046c0-4.142-3.357-7.5-7.5-7.5s-7.5 3.358-7.5 7.5v62.319l-37.747 97.423-56.514-21.571c9.863-29.989 20.962-63.303 31.821-95.897 4.34-13.027 8.684-26.063 12.956-38.91 1.307-3.931-.82-8.176-4.75-9.483-3.935-1.307-8.177.82-9.484 4.75-4.271 12.845-8.613 25.878-12.953 38.902-16.657 49.999-33.882 101.7-46.362 140.545-1.219 3.794.742 7.879 4.465 9.3l68.118 26.011c3.862 1.474 8.179-.448 9.669-4.297l40.781-105.254v125.564c0 4.142 3.357 7.5 7.5 7.5h250.213c4.143 0 7.5-3.358 7.5-7.5v-125.565l40.781 105.254c1.49 3.849 5.809 5.773 9.669 4.297l68.118-26.011c3.724-1.422 5.685-5.51 4.464-9.304zm-440.316 18.639-54.502-20.811c2.402-7.437 4.958-15.292 7.631-23.462l55.776 21.29zm302.285 25.188h-235.214v-30.276h235.213v30.276zm0-45.276h-235.214v-17.579h235.213v17.579zm67.071 20.088-8.908-22.992 55.771-21.279c2.615 7.989 5.167 15.822 7.636 23.461z"/></g></g></svg>